<?xml version="1.0" standalone="no"?>
<!DOCTYPE svg PUBLIC "-//W3C//DTD SVG 20010904//EN"
 "http://www.w3.org/TR/2001/REC-SVG-20010904/DTD/svg10.dtd">
<svg version="1.0" xmlns="http://www.w3.org/2000/svg"
 width="500.000000pt" height="500.000000pt" viewBox="0 0 500.000000 500.000000"
 preserveAspectRatio="xMidYMid meet">
<metadata>
Created by potrace 1.16, written by Peter Selinger 2001-2019
</metadata>
<g transform="translate(0.000000,500.000000) scale(0.100000,-0.100000)"
fill="#20597d" stroke="none">
<path d="M2027 4016 c-187 -52 -278 -264 -189 -438 l30 -57 -122 -154 c-66
-85 -159 -201 -205 -259 l-85 -104 -50 14 c-143 38 -297 -32 -363 -166 -23
-47 -28 -70 -28 -132 1 -124 62 -222 173 -277 76 -37 191 -39 268 -5 64 29
126 92 156 157 31 69 32 180 0 248 l-22 49 81 106 c45 59 89 114 98 122 9 8
48 56 86 105 155 202 157 204 183 194 37 -14 124 -11 176 7 l48 16 165 -164
166 -165 -13 -53 c-33 -138 37 -283 168 -347 48 -24 69 -28 137 -28 98 1 162
26 223 88 64 65 87 126 87 226 l0 84 153 120 c85 66 159 120 165 120 7 1 39
-7 71 -17 163 -51 340 39 388 197 46 154 -18 304 -160 374 -74 36 -191 39
-263 6 -140 -63 -219 -227 -176 -366 l15 -48 -145 -120 -145 -121 -66 33 c-59
30 -74 34 -146 34 -62 -1 -93 -6 -131 -23 l-49 -23 -158 158 -157 158 21 60
c50 146 -25 313 -168 376 -57 26 -156 33 -217 15z"/>
<path d="M1857 3113 c-4 -3 -7 -420 -7 -925 l0 -918 -125 0 -125 0 -2 443 -3
442 -265 0 -265 0 -3 -442 -2 -443 -170 0 -170 0 0 -90 0 -90 1780 0 1780 0 0
90 0 90 -170 0 -170 0 -2 863 -3 862 -267 3 -268 2 0 -865 0 -865 -125 0 -125
0 -2 603 -3 602 -254 3 c-197 2 -256 -1 -263 -10 -4 -7 -8 -280 -8 -605 l0
-593 -120 0 -120 0 0 913 c0 697 -3 916 -12 925 -13 13 -499 18 -511 5z"/>
</g>
</svg>
