<?xml version="1.0" standalone="no"?>
<!DOCTYPE svg PUBLIC "-//W3C//DTD SVG 20010904//EN"
 "http://www.w3.org/TR/2001/REC-SVG-20010904/DTD/svg10.dtd">
<svg version="1.0" xmlns="http://www.w3.org/2000/svg"
 width="245.000000pt" height="235.000000pt" viewBox="0 0 245.000000 235.000000"
 preserveAspectRatio="xMidYMid meet">
<metadata>
Created by potrace 1.16, written by Peter Selinger 2001-2019
</metadata>
<g transform="translate(0.000000,235.000000) scale(0.100000,-0.100000)"
fill="#20597d" stroke="none">
<path d="M640 1700 c-18 -18 -20 -33 -20 -150 0 -117 2 -132 20 -150 11 -11
31 -20 45 -20 23 0 25 -3 25 -50 0 -47 -2 -50 -25 -50 -14 0 -34 -9 -45 -20
-18 -18 -20 -33 -20 -150 0 -117 2 -132 20 -150 11 -11 31 -20 45 -20 23 0 25
-3 25 -50 0 -47 -2 -50 -25 -50 -14 0 -34 -9 -45 -20 -18 -18 -20 -33 -20
-150 0 -117 2 -132 20 -150 20 -20 33 -20 590 -20 557 0 570 0 590 20 18 18
20 33 20 150 0 117 -2 132 -20 150 -11 11 -31 20 -45 20 -23 0 -25 3 -25 50 0
47 2 50 25 50 14 0 36 11 48 24 23 24 26 56 19 219 -2 64 -25 97 -67 97 -23 0
-25 3 -25 50 0 47 2 50 25 50 14 0 34 9 45 20 18 18 20 33 20 150 0 117 -2
132 -20 150 -20 20 -33 20 -590 20 -557 0 -570 0 -590 -20z m235 -190 l0 -45
-90 0 -90 0 -3 33 c-6 60 -2 63 95 60 l88 -3 0 -45z m805 -180 l0 -50 -450 0
-450 0 0 50 0 50 450 0 450 0 0 -50z m-805 -260 l0 -45 -90 0 -90 0 -3 33 c-6
60 -2 63 95 60 l88 -3 0 -45z m805 -180 l0 -50 -450 0 -450 0 0 50 0 50 450 0
450 0 0 -50z m-805 -260 l0 -45 -90 0 -90 0 -3 33 c-6 60 -2 63 95 60 l88 -3
0 -45z"/>
</g>
</svg>
