<?xml version="1.0" standalone="no"?>
<!DOCTYPE svg PUBLIC "-//W3C//DTD SVG 20010904//EN"
 "http://www.w3.org/TR/2001/REC-SVG-20010904/DTD/svg10.dtd">
<svg version="1.0" xmlns="http://www.w3.org/2000/svg"
 width="200.000000pt" height="200.000000pt" viewBox="0 0 200.000000 200.000000"
 preserveAspectRatio="xMidYMid meet">
<metadata>
Created by potrace 1.16, written by Peter Selinger 2001-2019
</metadata>
<g transform="translate(0.000000,200.000000) scale(0.100000,-0.100000)"
fill="#20597d" stroke="none">
<path d="M222 1627 l-22 -23 0 -515 0 -516 23 -21 c22 -21 33 -22 190 -22
l167 0 0 30 0 29 -157 3 -158 3 -3 403 -2 402 740 0 740 0 -2 -402 -3 -403
-157 -3 -158 -3 0 -29 0 -30 168 0 c163 0 169 1 190 23 l22 23 0 515 0 516
-23 21 -23 22 -755 0 -756 0 -21 -23z"/>
<path d="M970 1110 c0 -193 -3 -240 -13 -240 -29 0 -61 -50 -62 -95 l0 -44
-50 29 -50 29 -3 60 c-3 60 -3 61 -32 61 l-30 0 0 -80 0 -80 55 -31 c30 -17
58 -35 61 -40 3 -5 -38 -9 -95 -9 l-101 0 0 -110 0 -110 35 0 35 0 0 80 0 80
50 0 c59 0 65 -14 13 -30 -21 -7 -42 -16 -46 -20 -5 -4 8 -53 29 -109 37 -102
48 -114 84 -91 14 9 7 37 -36 144 -12 30 12 15 38 -24 27 -41 98 -80 147 -80
52 0 118 37 148 81 14 22 30 39 34 39 8 0 -30 -114 -46 -140 -6 -10 26 -30 47
-30 17 0 94 198 82 210 -5 4 -26 13 -46 20 -53 16 -47 30 12 30 l50 0 0 -85 0
-85 35 0 35 0 0 115 0 115 -101 0 c-57 0 -98 4 -95 9 3 5 31 23 61 40 l55 31
0 80 0 80 -30 0 c-29 0 -29 -1 -32 -61 l-3 -60 -50 -29 -50 -29 0 44 c-1 45
-33 95 -62 95 -10 0 -13 47 -13 240 l0 240 -30 0 -30 0 0 -240z"/>
</g>
</svg>
