<svg id="Layer_1" data-name="Layer 1" xmlns="http://www.w3.org/2000/svg" viewBox="0 0 200 200">
    <defs><style>.cls-1{fill:#20597d;}</style></defs><title>rwdmonitors-icon</title><path class="cls-1" d="M121.77913,132.23252c-.00012-12.956-.02-25.912.008-38.86792.0146-6.75976,2.6795-9.45788,9.36219-9.46656q27.20748-.03532,54.415.00346c6.43969.0116,9.14345,2.77069,9.1476,9.266q.02515,39.4816-.00245,78.96321c-.00491,6.17807-3.04917,9.24943-9.34635,9.26826q-27.00273.08075-54.00584.00387c-6.65239-.0169-9.56036-3.07656-9.57174-9.89331Q121.75278,151.87108,121.77913,132.23252Zm67.81041,33.22685V90.73006H126.9218v74.7293ZM158.36287,177.252c1.3146-2.18313,2.63616-3.41539,2.43066-4.28809a3.95851,3.95851,0,0,0-2.83288-2.372c-.73428-.088-2.34457,1.54772-2.35192,2.42278C155.6,174.05823,156.88553,175.11261,158.36287,177.252Z"/><path class="cls-1" d="M172.53922,80.52648h-9.543V63.13291H22.009v45.7094H12.80921c-.09056-1.37922-.24908-2.68377-.25071-3.98851q-.02708-21.6862-.00528-43.37244c.00886-6.13083,1.87664-7.95152,8.12656-7.95254q71.81-.01178,143.61994.00018c6.27673.00113,8.22184,1.99243,8.23646,8.3488C172.55023,67.98514,172.53922,74.09254,172.53922,80.52648Z"/><path class="cls-1" d="M52.618,158.79009V140.30576h65.73262v18.48433Z"/><path class="cls-1" d="M49.75582,146.82582c.0006,9.13416.01658,18.26836-.00536,27.40246-.01331,5.53958-1.734,7.23276-7.364,7.249-7.9071.02277-15.81463.04446-23.72139-.0139-4.34719-.03208-6.37332-1.88005-6.39005-6.16394q-.111-28.42451-.00655-56.84967c.0141-4.20216,1.76872-6.119,5.93025-6.19929q12.87664-.24837,25.76111.01019c3.9913.07759,5.75117,2.16832,5.777,6.34483C49.7952,128.01193,49.75521,137.419,49.75582,146.82582Zm-34.01444-22.739v46.216H46.15553v-46.216ZM35.0442,175.2745c-2.28225-1.16189-3.49347-2.291-4.56369-2.17021-.95071.10728-1.745,1.601-2.60833,2.48277.99777.87877,1.93531,2.35055,3.01124,2.45982C31.84747,178.14479,32.96389,176.74255,35.0442,175.2745Z"/><path class="cls-1" d="M116.11723,181.01945H67.916c2.47964-2.63794,4.87444-4.37086,6.10062-6.715,1.27219-2.43219,1.41293-5.4562,2.15052-8.6652,10.34728,0,20.79167-.0304,31.23474.07321.64763.00642,1.83544,1.06052,1.84149,1.637.05908,5.625,2.70756,9.75667,7.57709,12.72654Z"/></svg>